<svg width="517" height="390" viewBox="0 0 517 390" fill="none" xmlns="http://www.w3.org/2000/svg">
<g clip-path="url(#clip0_10_3)">
<path fill-rule="evenodd" clip-rule="evenodd" d="M314.774 180.985C304.323 195.787 282.346 205.983 256.925 205.983C230.384 205.983 207.595 194.867 197.761 179C187.659 191.194 181.448 206.649 181 223.52L215.974 251H288.891L329.855 221.29C328.994 206.184 323.509 192.297 314.774 180.985Z" fill="#F0AA40"/>
<path d="M140 115.8C140.379 103.92 144.585 90.6833 146.641 85.55L365.308 85C369.103 93.8 370.684 109.2 371 115.8C342.92 203.36 281.193 227.083 253.84 228C193.125 220.52 152.649 150.083 140 115.8Z" fill="url(#paint0_linear_10_3)" stroke="#F8C06C" stroke-width="1.5"/>
<path d="M176.269 69.5331C176.237 69.5999 176.211 69.6693 176.177 69.7354C176.107 69.8729 176.021 70.0034 175.957 70.1441C175.906 70.2546 175.863 70.3674 175.819 70.4806C175.811 70.5021 175.801 70.5308 175.785 70.5471" stroke="black" stroke-width="0.5" stroke-linecap="round"/>
<path fill-rule="evenodd" clip-rule="evenodd" d="M356.703 106.983C352.839 177.109 304.039 223 255.949 223C207.29 223 157.904 176.016 155.077 104.483C169.75 64.5738 209.15 36 255.449 36C302.71 36 342.781 65.7728 356.703 106.983Z" fill="url(#paint1_linear_10_3)"/>
<path d="M334.668 69.2398C334.711 69.244 334.726 69.3633 334.732 69.3945C334.748 69.4718 334.748 69.5543 334.751 69.6331C334.753 69.6844 334.77 69.7327 334.771 69.7846C334.771 69.8234 334.766 69.8652 334.772 69.9037C334.779 69.9559 334.797 70.0113 334.816 70.0592C334.827 70.0878 334.825 70.1208 334.835 70.1508C334.844 70.1765 334.845 70.2041 334.854 70.2282" stroke="black" stroke-width="0.5" stroke-linecap="round"/>
<path d="M334.949 69.5H175.949C191.116 46.8333 228.249 7.1 255.449 29.5C283.449 7.49999 320.116 47 334.949 69.5Z" fill="url(#paint2_linear_10_3)"/>
<path fill-rule="evenodd" clip-rule="evenodd" d="M184.996 2.15143C185.158 -0.0493598 182.16 -0.852656 181.201 1.13444L154.949 55.4818L180.546 62.4904L184.996 2.15143Z" fill="url(#paint3_linear_10_3)"/>
<path fill-rule="evenodd" clip-rule="evenodd" d="M178.23 49.2387C176.538 48.2192 174.713 47.489 172.774 47.0904C159.079 44.2758 144.843 59.0605 140.976 80.1128C137.109 101.165 145.076 120.513 158.771 123.328C159.759 123.531 160.751 123.642 161.741 123.666C166.067 118.416 169.863 112.437 172.966 105.774C181.747 86.9148 182.974 66.8499 178.23 49.2387Z" fill="url(#paint4_linear_10_3)"/>
<path fill-rule="evenodd" clip-rule="evenodd" d="M159.189 63.0962C152.451 61.9082 145.064 71.8653 142.689 85.336C140.313 98.8067 143.85 110.69 150.587 111.878C157.325 113.066 164.712 103.109 167.087 89.6381C169.462 76.1674 165.926 64.2842 159.189 63.0962ZM160.877 71.4435C156.184 70.616 151.038 77.552 149.384 86.9355C147.729 96.319 150.193 104.597 154.886 105.424C159.579 106.252 164.725 99.3158 166.379 89.9323C168.034 80.5487 165.571 72.271 160.877 71.4435Z" fill="white"/>
<path d="M184.949 2C184.949 0.8 184.283 0.5 183.949 0.5C179.616 21 172.849 61.6 180.449 60L184.949 2Z" fill="#FFBF60"/>
<path d="M176.449 86C179.249 74.8 175.949 63 173.949 58.5C175.949 87.3 163.116 111.167 156.449 119.5C167.249 118.7 174.283 96.8333 176.449 86Z" fill="#FFE08F" stroke="#FFE08F"/>
<path fill-rule="evenodd" clip-rule="evenodd" d="M325.955 2.15143C325.793 -0.0493598 328.791 -0.852656 329.751 1.13444L356.002 55.4818L330.406 62.4904L325.955 2.15143Z" fill="url(#paint5_linear_10_3)"/>
<path fill-rule="evenodd" clip-rule="evenodd" d="M332.721 49.2387C334.414 48.2192 336.238 47.489 338.177 47.0904C351.872 44.2758 366.108 59.0605 369.975 80.1128C373.842 101.165 365.875 120.513 352.181 123.328C351.192 123.531 350.201 123.642 349.211 123.666C344.885 118.416 341.088 112.437 337.985 105.774C329.205 86.9148 327.977 66.8499 332.721 49.2387Z" fill="url(#paint6_linear_10_3)"/>
<path fill-rule="evenodd" clip-rule="evenodd" d="M351.763 63.0962C358.5 61.9082 365.888 71.8653 368.263 85.336C370.638 98.8067 367.102 110.69 360.364 111.878C353.627 113.066 346.24 103.109 343.864 89.6381C341.489 76.1674 345.025 64.2842 351.763 63.0962ZM350.074 71.4435C354.767 70.616 359.913 77.552 361.568 86.9355C363.222 96.319 360.759 104.597 356.066 105.424C351.372 106.252 346.227 99.3158 344.572 89.9323C342.917 80.5487 345.381 72.271 350.074 71.4435Z" fill="white"/>
<path d="M326.002 2C326.002 0.8 326.669 0.5 327.002 0.5C331.335 21 338.102 61.6 330.502 60L326.002 2Z" fill="#FFBF60"/>
<path d="M334.502 86C331.702 74.8 335.002 63 337.002 58.5C335.002 87.3 347.836 111.167 354.502 119.5C343.702 118.7 336.669 96.8333 334.502 86Z" fill="#FFE08F" stroke="#FFE08F"/>
<path d="M216.949 77.4C222.472 77.4 226.949 71.4902 226.949 64.2C226.949 56.9098 222.472 51 216.949 51C211.426 51 206.949 56.9098 206.949 64.2C206.949 71.4902 211.426 77.4 216.949 77.4Z" fill="#1F63CA"/>
<path d="M212.631 63.5053C215.769 63.5053 218.313 60.9132 218.313 57.7158C218.313 54.5184 215.769 51.9263 212.631 51.9263C209.493 51.9263 206.949 54.5184 206.949 57.7158C206.949 60.9132 209.493 63.5053 212.631 63.5053Z" fill="white"/>
<path d="M293.949 77.4C299.472 77.4 303.949 71.4902 303.949 64.2C303.949 56.9098 299.472 51 293.949 51C288.426 51 283.949 56.9098 283.949 64.2C283.949 71.4902 288.426 77.4 293.949 77.4Z" fill="#1F63CA"/>
<path d="M289.631 63.5053C292.769 63.5053 295.313 60.9132 295.313 57.7158C295.313 54.5184 292.769 51.9263 289.631 51.9263C286.493 51.9263 283.949 54.5184 283.949 57.7158C283.949 60.9132 286.493 63.5053 289.631 63.5053Z" fill="white"/>
<path fill-rule="evenodd" clip-rule="evenodd" d="M222.949 132.802C223.947 98.3418 238.539 71 256.395 71C274.25 71 288.843 98.3417 289.84 132.801C280.54 140.458 268.954 145 256.394 145C243.835 145 232.25 140.458 222.949 132.802Z" fill="url(#paint7_linear_10_3)"/>
<path fill-rule="evenodd" clip-rule="evenodd" d="M256.106 108C273.276 108 288.191 115.02 298.084 125.783L297.632 126.599C286.399 117.947 271.915 112.737 256.106 112.737C240.735 112.737 226.617 117.662 215.521 125.888L214.949 124.91C224.836 114.642 239.404 108 256.106 108Z" fill="#DF9F3F"/>
<path fill-rule="evenodd" clip-rule="evenodd" d="M240.813 125.355C235.805 123.532 229.248 128.913 226.169 137.373C226.093 137.582 226.02 137.791 225.949 138C230.986 131.26 237.897 127.986 242.411 130.592C244.142 131.592 245.301 133.329 245.884 135.527C245.896 130.538 244.094 126.549 240.813 125.355Z" fill="#1F63CA"/>
<path fill-rule="evenodd" clip-rule="evenodd" d="M272.02 125.355C277.028 123.532 283.585 128.913 286.664 137.373C286.74 137.582 286.814 137.791 286.884 138C281.847 131.26 274.936 127.986 270.422 130.592C268.691 131.592 267.532 133.329 266.949 135.527C266.937 130.538 268.739 126.549 272.02 125.355Z" fill="#1F63CA"/>
<path fill-rule="evenodd" clip-rule="evenodd" d="M309.469 155.16C294.5 160.924 275.877 164.341 255.693 164.341C234.406 164.341 214.856 160.54 199.496 154.194C198.938 154.015 198.441 153.89 198.002 153.811C196.487 153.742 195.526 154.414 194.969 155.188C194.951 155.34 194.945 155.499 194.952 155.666C203.505 179.513 227.292 196.666 255.297 196.666C281.32 196.666 303.7 181.856 313.601 160.628C313.773 160.177 313.927 159.717 314.051 159.262C314.356 158.144 314.473 157.078 314.263 156.261C314.158 155.856 313.974 155.516 313.696 155.259C313.418 155.003 313.036 154.82 312.522 154.744C311.788 154.636 310.791 154.745 309.469 155.16ZM311.272 154.447C311.763 154.39 312.192 154.392 312.566 154.448C312.918 154.5 313.222 154.599 313.481 154.74C313.013 154.463 312.392 154.304 311.578 154.322C311.476 154.364 311.374 154.405 311.272 154.447ZM314.33 155.601C314.426 155.782 314.5 155.978 314.553 156.186C314.728 156.865 314.693 157.679 314.53 158.528C314.593 158.38 314.654 158.231 314.715 158.082C314.814 157.249 314.748 156.325 314.33 155.601ZM316.688 152.461C316.343 153.635 315.961 154.795 315.544 155.939L316.688 152.461ZM316.804 152.061C316.81 152.041 316.816 152.02 316.822 152C316.66 152.077 316.498 152.155 316.335 152.231L316.804 152.061Z" fill="#BA2222"/>
<mask id="mask0_10_3" style="mask-type:luminance" maskUnits="userSpaceOnUse" x="194" y="152" width="123" height="45">
<path fill-rule="evenodd" clip-rule="evenodd" d="M309.469 155.16C294.5 160.924 275.877 164.341 255.693 164.341C234.406 164.341 214.856 160.54 199.496 154.194C198.938 154.015 198.441 153.89 198.002 153.811C196.487 153.742 195.526 154.414 194.969 155.188C194.951 155.34 194.945 155.499 194.952 155.666C203.505 179.513 227.292 196.666 255.297 196.666C281.32 196.666 303.7 181.856 313.601 160.628C313.773 160.177 313.927 159.717 314.051 159.262C314.356 158.144 314.473 157.078 314.263 156.261C314.158 155.856 313.974 155.516 313.696 155.259C313.418 155.003 313.036 154.82 312.522 154.744C311.788 154.636 310.791 154.745 309.469 155.16ZM311.272 154.447C311.763 154.39 312.192 154.392 312.566 154.448C312.918 154.5 313.222 154.599 313.481 154.74C313.013 154.463 312.392 154.304 311.578 154.322C311.476 154.364 311.374 154.405 311.272 154.447ZM314.33 155.601C314.426 155.782 314.5 155.978 314.553 156.186C314.728 156.865 314.693 157.679 314.53 158.528C314.593 158.38 314.654 158.231 314.715 158.082C314.814 157.249 314.748 156.325 314.33 155.601ZM316.688 152.461C316.343 153.635 315.961 154.795 315.544 155.939L316.688 152.461ZM316.804 152.061C316.81 152.041 316.816 152.02 316.822 152C316.66 152.077 316.498 152.155 316.335 152.231L316.804 152.061Z" fill="white"/>
</mask>
<g mask="url(#mask0_10_3)">
<path d="M309.469 155.16L307.974 150.388L307.822 150.436L307.672 150.494L309.469 155.16ZM199.496 154.194L201.406 149.573L201.215 149.494L201.019 149.431L199.496 154.194ZM198.002 153.811L198.888 148.89L198.561 148.831L198.229 148.816L198.002 153.811ZM194.969 155.188L190.912 152.266L190.158 153.313L190.004 154.594L194.969 155.188ZM194.952 155.666L189.955 155.856L189.985 156.627L190.245 157.354L194.952 155.666ZM313.601 160.628L318.132 162.741L318.207 162.581L318.27 162.416L313.601 160.628ZM311.272 154.447L309.392 149.814L311.849 159.413L311.272 154.447ZM313.481 154.74L311.087 159.13L316.027 150.437L313.481 154.74ZM311.578 154.322L311.467 149.323L310.541 149.344L309.684 149.695L311.578 154.322ZM314.33 155.601L318.659 153.099L309.916 157.949L314.33 155.601ZM314.53 158.528L309.62 157.588L319.141 160.462L314.53 158.528ZM314.715 158.082L319.342 159.978L319.6 159.348L319.68 158.672L314.715 158.082ZM316.688 152.461L321.485 153.872L311.939 150.899L316.688 152.461ZM315.544 155.939L310.795 154.377L320.242 157.651L315.544 155.939ZM316.822 152L321.63 153.371L324.671 142.7L314.663 147.49L316.822 152ZM316.804 152.061L318.506 156.763L320.908 155.893L321.611 153.437L316.804 152.061ZM316.335 152.231L314.202 147.709L318.036 156.933L316.335 152.231ZM255.693 169.341C276.411 169.341 295.653 165.838 311.266 159.826L307.672 150.494C293.347 156.01 275.343 159.341 255.693 159.341V169.341ZM197.587 158.815C213.636 165.446 233.848 169.341 255.693 169.341V159.341C234.964 159.341 216.076 155.634 201.406 149.573L197.587 158.815ZM197.117 158.732C197.3 158.765 197.581 158.831 197.973 158.956L201.019 149.431C200.294 149.2 199.583 149.015 198.888 148.89L197.117 158.732ZM199.026 158.111C198.91 158.272 198.71 158.478 198.409 158.632C198.089 158.797 197.836 158.808 197.776 158.806L198.229 148.816C194.853 148.663 192.349 150.271 190.912 152.266L199.026 158.111ZM199.948 155.476C199.95 155.532 199.951 155.637 199.933 155.782L190.004 154.594C189.951 155.042 189.941 155.467 189.955 155.856L199.948 155.476ZM255.297 191.666C229.333 191.666 207.476 175.774 199.658 153.978L190.245 157.354C199.534 183.252 225.25 201.666 255.297 201.666V191.666ZM309.069 158.514C300.006 177.947 279.415 191.666 255.297 191.666V201.666C283.224 201.666 307.394 185.765 318.132 162.741L309.069 158.514ZM309.227 157.948C309.153 158.219 309.054 158.519 308.932 158.839L318.27 162.416C318.493 161.834 318.701 161.215 318.875 160.576L309.227 157.948ZM309.421 157.508C309.381 157.353 309.372 157.249 309.37 157.214C309.368 157.178 309.371 157.186 309.366 157.245C309.356 157.372 309.32 157.606 309.227 157.948L318.875 160.576C319.255 159.181 319.641 157.097 319.105 155.014L309.421 157.508ZM310.306 158.935C309.738 158.411 309.505 157.834 309.421 157.508L319.105 155.014C318.812 153.878 318.211 152.621 317.086 151.584L310.306 158.935ZM311.79 159.691C311.486 159.646 310.887 159.47 310.306 158.935L317.086 151.584C315.949 150.536 314.587 149.995 313.254 149.798L311.79 159.691ZM310.964 159.931C311.412 159.791 311.702 159.735 311.859 159.714C312.02 159.694 311.978 159.718 311.79 159.691L313.254 149.798C311.47 149.534 309.65 149.863 307.974 150.388L310.964 159.931ZM313.298 149.501C312.404 149.369 311.525 149.384 310.695 149.48L311.849 159.413C311.885 159.409 311.911 159.407 311.929 159.406C311.946 159.405 311.954 159.405 311.954 159.405C311.952 159.405 311.91 159.405 311.834 159.394L313.298 149.501ZM315.876 150.351C315.029 149.889 314.148 149.627 313.298 149.501L311.834 159.394C311.688 159.372 311.415 159.309 311.087 159.13L315.876 150.351ZM311.689 159.321C311.798 159.318 311.447 159.346 310.935 159.043L316.027 150.437C314.58 149.581 312.986 149.29 311.467 149.323L311.689 159.321ZM313.152 159.08C313.259 159.036 313.366 158.993 313.473 158.949L309.684 149.695C309.587 149.735 309.49 149.774 309.392 149.814L313.152 159.08ZM319.395 154.939C319.256 154.397 319.048 153.825 318.744 153.253L309.916 157.949C309.804 157.739 309.744 157.559 309.712 157.434L319.395 154.939ZM319.441 159.468C319.671 158.266 319.83 156.627 319.395 154.939L309.712 157.434C309.685 157.331 309.676 157.258 309.672 157.223C309.668 157.187 309.67 157.178 309.669 157.2C309.669 157.223 309.667 157.267 309.659 157.335C309.651 157.402 309.639 157.486 309.62 157.588L319.441 159.468ZM310.088 156.186C310.033 156.322 309.976 156.458 309.919 156.594L319.141 160.462C319.209 160.301 319.276 160.14 319.342 159.978L310.088 156.186ZM310.001 158.103C309.809 157.771 309.768 157.52 309.76 157.457C309.751 157.391 309.761 157.403 309.75 157.493L319.68 158.672C319.841 157.317 319.841 155.145 318.659 153.099L310.001 158.103ZM311.891 151.05C311.576 152.122 311.227 153.182 310.846 154.228L320.242 157.651C320.695 156.408 321.11 155.148 321.485 153.872L311.891 151.05ZM320.294 157.501L321.438 154.023L311.939 150.899L310.795 154.377L320.294 157.501ZM312.013 150.629C312.008 150.648 312.003 150.666 311.997 150.685L321.611 153.437C321.617 153.416 321.624 153.393 321.63 153.371L312.013 150.629ZM318.467 156.754C318.639 156.673 318.81 156.592 318.98 156.51L314.663 147.49C314.51 147.563 314.357 147.636 314.202 147.709L318.467 156.754ZM315.102 147.36L314.633 147.53L318.036 156.933L318.506 156.763L315.102 147.36Z" fill="#B51B1B"/>
</g>
<path d="M256.951 179.019C245.948 178.256 242.399 201.252 242 212.845C246.162 210.966 254.541 206.567 254.766 203.995C255.088 207.345 257.929 214.238 266.717 215.007C270.134 187.199 261.63 179.429 256.951 179.019Z" fill="#D02323" stroke="#D12525" stroke-width="5"/>
<path d="M145.06 231.099C164.26 231.099 185.06 224.433 193.06 221.099C213.06 254.699 181.06 308.766 162.56 331.599C136.16 333.999 124.227 326.599 121.56 322.599C125.435 317.979 128.132 312.58 129.897 306.72C85.6095 314.394 30.6166 253.943 8.56018 222.599C-10.6398 181.799 6.89351 163.599 18.0602 159.599C36.0602 155.599 47.2268 172.599 50.5602 181.599C68.5602 172.399 69.0602 194.433 67.0602 206.599C66.4725 221.292 94.6329 227.71 120.06 230.015C129.245 230.847 138.072 231.144 145.06 231.099Z" fill="url(#paint8_linear_10_3)"/>
<path d="M162.5 331C154 332.667 133.9 333.4 121.5 323C126.155 318.178 134.858 302.576 132.517 278.675C142.469 280.355 162.535 282.932 170.801 281C169.029 260.286 162.555 241.161 157.5 230.5C166.7 229.3 181 225.333 187 223.5C189 222.5 202 259.5 196 269.5C191.2 277.5 177.201 280.5 170.801 281C172.243 297.849 170.574 315.749 162.5 331Z" fill="#1F63CA"/>
<path d="M371.349 231.099C352.149 231.099 331.349 224.433 323.349 221.099C303.349 254.699 335.349 308.766 353.849 331.599C380.249 333.999 392.182 326.599 394.849 322.599C390.974 317.979 388.277 312.58 386.512 306.72C430.799 314.394 485.792 253.943 507.849 222.599C527.049 181.799 509.515 163.599 498.349 159.599C480.349 155.599 469.182 172.599 465.849 181.599C447.849 172.399 447.349 194.433 449.349 206.599C449.936 221.292 421.776 227.71 396.349 230.015C387.164 230.847 378.336 231.144 371.349 231.099Z" fill="url(#paint9_linear_10_3)"/>
<path d="M353.909 331C362.409 332.667 382.509 333.4 394.909 323C390.254 318.178 381.551 302.576 383.892 278.675C373.94 280.355 353.874 282.932 345.608 281C347.38 260.286 353.854 241.161 358.909 230.5C349.709 229.3 335.409 225.333 329.409 223.5C327.409 222.5 314.409 259.5 320.409 269.5C325.209 277.5 339.208 280.5 345.608 281C344.166 297.849 345.835 315.749 353.909 331Z" fill="#1F63CA"/>
<path d="M263.532 243.425C243.532 248.225 222.199 235.091 214.032 227.925C207.143 221.608 164.637 171.804 172.032 203.425C177.021 209.665 179.389 216.577 181.032 219.425C182.632 226.625 181.699 233.091 181.032 235.425C156.632 267.825 151.532 351.925 152.032 389.925H351.032C351.832 283.125 335.032 238.091 326.532 228.925C334.532 217.325 337.199 209.091 337.532 206.425C339.132 174.051 310.928 229.623 263.532 243.425Z" fill="url(#paint10_linear_10_3)"/>
<path d="M233.938 254.5V300H223.219V254.5H233.938ZM244.969 254.5V262.969H212.5V254.5H244.969ZM265.125 289.281L272.125 254.5H284.125L271.5 300H263.812L265.125 289.281ZM259.25 254.5L266.281 289.281L267.656 300H259.875L247.312 254.5H259.25Z" fill="#1F63CA"/>
<path d="M193.922 348H188.707L188.746 342.727H193.922C194.898 342.727 195.693 342.512 196.305 342.082C196.93 341.652 197.392 340.943 197.691 339.953C197.991 338.951 198.141 337.616 198.141 335.949V331.594C198.141 330.344 198.056 329.289 197.887 328.43C197.73 327.57 197.483 326.88 197.145 326.359C196.806 325.839 196.357 325.461 195.797 325.227C195.237 324.979 194.573 324.855 193.805 324.855H188.609V319.562H193.805C195.471 319.562 196.982 319.836 198.336 320.383C199.703 320.917 200.882 321.711 201.871 322.766C202.861 323.807 203.622 325.07 204.156 326.555C204.69 328.039 204.957 329.732 204.957 331.633V335.949C204.957 337.837 204.69 339.53 204.156 341.027C203.622 342.512 202.861 343.775 201.871 344.816C200.895 345.858 199.729 346.652 198.375 347.199C197.034 347.733 195.549 348 193.922 348ZM192.613 319.562V348H185.934V319.562H192.613ZM215.387 319.562V348H208.727V319.562H215.387ZM239.664 332.805V344.68C239.221 345.109 238.57 345.617 237.711 346.203C236.852 346.789 235.771 347.303 234.469 347.746C233.18 348.176 231.656 348.391 229.898 348.391C228.271 348.391 226.806 348.143 225.504 347.648C224.202 347.154 223.089 346.405 222.164 345.402C221.253 344.387 220.549 343.117 220.055 341.594C219.56 340.057 219.312 338.241 219.312 336.145V331.438C219.312 329.354 219.56 327.538 220.055 325.988C220.562 324.439 221.272 323.163 222.184 322.16C223.095 321.158 224.176 320.409 225.426 319.914C226.676 319.406 228.062 319.152 229.586 319.152C231.865 319.152 233.733 319.536 235.191 320.305C236.663 321.073 237.763 322.18 238.492 323.625C239.221 325.057 239.605 326.796 239.645 328.84H233.238C233.186 327.759 233.03 326.893 232.77 326.242C232.509 325.591 232.138 325.129 231.656 324.855C231.174 324.569 230.562 324.426 229.82 324.426C229.221 324.426 228.688 324.543 228.219 324.777C227.763 325.012 227.372 325.402 227.047 325.949C226.734 326.483 226.493 327.199 226.324 328.098C226.168 328.996 226.09 330.096 226.09 331.398V336.145C226.09 337.434 226.168 338.527 226.324 339.426C226.48 340.324 226.721 341.04 227.047 341.574C227.372 342.108 227.809 342.499 228.355 342.746C228.902 342.993 229.579 343.117 230.387 343.117C230.882 343.117 231.292 343.052 231.617 342.922C231.943 342.792 232.216 342.642 232.438 342.473C232.659 342.303 232.841 342.186 232.984 342.121V337.512H229.586V332.805H239.664ZM250.27 319.562V348H243.609V319.562H250.27ZM266.305 319.562V348H259.605V319.562H266.305ZM273.199 319.562V324.855H252.906V319.562H273.199ZM284.449 325.539L279.156 348H271.969L280.738 319.562H285.23L284.449 325.539ZM288.59 348L283.297 325.539L282.418 319.562H286.988L295.777 348H288.59ZM288.805 337.395V342.688H276.48V337.395H288.805ZM314.215 342.727V348H302.262V342.727H314.215ZM304.605 319.562V348H297.926V319.562H304.605Z" fill="#1F63CA"/>
</g>
<defs>
<linearGradient id="paint0_linear_10_3" x1="255.5" y1="85" x2="255.5" y2="228" gradientUnits="userSpaceOnUse">
<stop stop-color="#F2BF71"/>
<stop offset="0.41" stop-color="#EFA434"/>
</linearGradient>
<linearGradient id="paint1_linear_10_3" x1="255.449" y1="36" x2="255.449" y2="242" gradientUnits="userSpaceOnUse">
<stop offset="0.268726" stop-color="#FABE49"/>
<stop offset="0.57" stop-color="#FFA826"/>
<stop offset="1" stop-color="#F0A12B"/>
</linearGradient>
<linearGradient id="paint2_linear_10_3" x1="256.643" y1="22.8741" x2="254.255" y2="69.5" gradientUnits="userSpaceOnUse">
<stop stop-color="#FFE3AD"/>
<stop offset="1" stop-color="#FABE49"/>
</linearGradient>
<linearGradient id="paint3_linear_10_3" x1="169.976" y1="7.55004e-07" x2="169.976" y2="62.4904" gradientUnits="userSpaceOnUse">
<stop stop-color="#F3C58E"/>
<stop offset="0.57" stop-color="#FFA826"/>
<stop offset="1" stop-color="#F0A12B"/>
</linearGradient>
<linearGradient id="paint4_linear_10_3" x1="158.215" y1="47.487" x2="163.533" y2="123.541" gradientUnits="userSpaceOnUse">
<stop stop-color="#FAA541"/>
<stop offset="0.57" stop-color="#F4C66B"/>
<stop offset="1" stop-color="#E87828"/>
</linearGradient>
<linearGradient id="paint5_linear_10_3" x1="340.976" y1="7.55004e-07" x2="340.976" y2="62.4904" gradientUnits="userSpaceOnUse">
<stop stop-color="#F3C58E"/>
<stop offset="0.57" stop-color="#FFA826"/>
<stop offset="1" stop-color="#F0A12B"/>
</linearGradient>
<linearGradient id="paint6_linear_10_3" x1="352.737" y1="47.487" x2="347.418" y2="123.541" gradientUnits="userSpaceOnUse">
<stop stop-color="#FAA541"/>
<stop offset="0.57" stop-color="#F4C66B"/>
<stop offset="1" stop-color="#E87828"/>
</linearGradient>
<linearGradient id="paint7_linear_10_3" x1="256.395" y1="71" x2="256.395" y2="145" gradientUnits="userSpaceOnUse">
<stop stop-color="#FEC85F"/>
<stop offset="0.691079" stop-color="#FFAB2B"/>
</linearGradient>
<linearGradient id="paint8_linear_10_3" x1="175.409" y1="307.568" x2="24" y2="183.5" gradientUnits="userSpaceOnUse">
<stop offset="0.55107" stop-color="#FEB032"/>
<stop offset="0.994948" stop-color="#FFDD9B"/>
</linearGradient>
<linearGradient id="paint9_linear_10_3" x1="341" y1="307.568" x2="492.409" y2="183.5" gradientUnits="userSpaceOnUse">
<stop offset="0.55107" stop-color="#FEB032"/>
<stop offset="0.994948" stop-color="#FFDD9B"/>
</linearGradient>
<linearGradient id="paint10_linear_10_3" x1="251.53" y1="193" x2="251.53" y2="389.925" gradientUnits="userSpaceOnUse">
<stop stop-color="#FEDA94"/>
<stop offset="0.415" stop-color="#FCBA42"/>
</linearGradient>
<clipPath id="clip0_10_3">
<rect width="517" height="390" fill="white"/>
</clipPath>
</defs>
</svg>
