<svg width="238" height="223" viewBox="0 0 238 223" fill="none" xmlns="http://www.w3.org/2000/svg">
<g clip-path="url(#clip0_1_3)">
<path d="M39.3199 69.5331C39.2878 69.5999 39.2615 69.6693 39.2277 69.7354C39.1574 69.8729 39.0721 70.0034 39.0078 70.1441C38.9572 70.2546 38.9136 70.3674 38.8697 70.4806C38.8614 70.5021 38.8522 70.5308 38.8359 70.5471" stroke="black" stroke-width="0.5" stroke-linecap="round"/>
<path fill-rule="evenodd" clip-rule="evenodd" d="M219.754 106.983C215.89 177.109 167.09 223 119 223C70.341 223 20.9543 176.016 18.1274 104.483C32.8012 64.5738 72.2003 36 118.5 36C165.761 36 205.832 65.7728 219.754 106.983Z" fill="url(#paint0_linear_1_3)"/>
<path d="M197.719 69.2398C197.762 69.244 197.777 69.3633 197.783 69.3945C197.799 69.4718 197.799 69.5543 197.802 69.6331C197.804 69.6844 197.821 69.7327 197.822 69.7846C197.822 69.8234 197.817 69.8652 197.823 69.9037C197.83 69.9559 197.848 70.0113 197.867 70.0592C197.878 70.0878 197.876 70.1208 197.886 70.1508C197.895 70.1765 197.896 70.2041 197.905 70.2282" stroke="black" stroke-width="0.5" stroke-linecap="round"/>
<path d="M198 69.5H39C54.1667 46.8333 91.3 7.1 118.5 29.5C146.5 7.49999 183.167 47 198 69.5Z" fill="url(#paint1_linear_1_3)"/>
<path fill-rule="evenodd" clip-rule="evenodd" d="M48.0468 2.15143C48.2091 -0.0493596 45.2112 -0.852656 44.2513 1.13444L18 55.4818L43.5966 62.4904L48.0468 2.15143Z" fill="url(#paint2_linear_1_3)"/>
<path fill-rule="evenodd" clip-rule="evenodd" d="M41.2809 49.2387C39.5886 48.2192 37.7642 47.489 35.8249 47.0904C22.1302 44.2758 7.89375 59.0605 4.02688 80.1128C0.160016 101.165 8.12701 120.513 21.8217 123.328C22.8102 123.531 23.8015 123.642 24.7915 123.666C29.1176 118.416 32.9142 112.437 36.0169 105.774C44.7977 86.9148 46.0252 66.8499 41.2809 49.2387Z" fill="url(#paint3_linear_1_3)"/>
<path fill-rule="evenodd" clip-rule="evenodd" d="M22.2394 63.0962C15.502 61.9082 8.11468 71.8653 5.73943 85.336C3.36419 98.8067 6.90045 110.69 13.6379 111.878C20.3753 113.066 27.7626 103.109 30.1379 89.6381C32.5131 76.1674 28.9769 64.2842 22.2394 63.0962ZM23.9282 71.4435C19.235 70.616 14.0891 77.552 12.4346 86.9355C10.78 96.319 13.2433 104.597 17.9365 105.424C22.6298 106.252 27.7756 99.3158 29.4302 89.9323C31.0848 80.5487 28.6215 72.271 23.9282 71.4435Z" fill="white"/>
<path d="M48.0001 2C48.0001 0.8 47.3334 0.5 47.0001 0.5C42.6667 21 35.9001 61.6 43.5001 60L48.0001 2Z" fill="#FFBF60"/>
<path d="M39.5 86C42.3 74.8 39 63 37 58.5C39 87.3 26.1667 111.167 19.5 119.5C30.3 118.7 37.3333 96.8333 39.5 86Z" fill="#FFE08F" stroke="#FFE08F"/>
<path fill-rule="evenodd" clip-rule="evenodd" d="M189.006 2.15143C188.844 -0.0493596 191.842 -0.852656 192.802 1.13444L219.053 55.4818L193.457 62.4904L189.006 2.15143Z" fill="url(#paint4_linear_1_3)"/>
<path fill-rule="evenodd" clip-rule="evenodd" d="M195.772 49.2387C197.465 48.2192 199.289 47.489 201.228 47.0904C214.923 44.2758 229.159 59.0605 233.026 80.1128C236.893 101.165 228.926 120.513 215.232 123.328C214.243 123.531 213.252 123.642 212.262 123.666C207.936 118.416 204.139 112.437 201.036 105.774C192.256 86.9148 191.028 66.8499 195.772 49.2387Z" fill="url(#paint5_linear_1_3)"/>
<path fill-rule="evenodd" clip-rule="evenodd" d="M214.814 63.0962C221.551 61.9082 228.939 71.8653 231.314 85.336C233.689 98.8067 230.153 110.69 223.415 111.878C216.678 113.066 209.291 103.109 206.915 89.6381C204.54 76.1674 208.076 64.2842 214.814 63.0962ZM213.125 71.4435C217.818 70.616 222.964 77.552 224.619 86.9355C226.273 96.319 223.81 104.597 219.117 105.424C214.423 106.252 209.278 99.3158 207.623 89.9323C205.968 80.5487 208.432 72.271 213.125 71.4435Z" fill="white"/>
<path d="M189.053 2C189.053 0.8 189.72 0.5 190.053 0.5C194.386 21 201.153 61.6 193.553 60L189.053 2Z" fill="#FFBF60"/>
<path d="M197.553 86C194.753 74.8 198.053 63 200.053 58.5C198.053 87.3 210.887 111.167 217.553 119.5C206.753 118.7 199.72 96.8333 197.553 86Z" fill="#FFE08F" stroke="#FFE08F"/>
<path d="M80 77.4C85.5228 77.4 90 71.4902 90 64.2C90 56.9098 85.5228 51 80 51C74.4772 51 70 56.9098 70 64.2C70 71.4902 74.4772 77.4 80 77.4Z" fill="#1F63CA"/>
<path d="M75.6818 63.5053C78.8198 63.5053 81.3636 60.9132 81.3636 57.7158C81.3636 54.5184 78.8198 51.9263 75.6818 51.9263C72.5438 51.9263 70 54.5184 70 57.7158C70 60.9132 72.5438 63.5053 75.6818 63.5053Z" fill="white"/>
<path d="M157 77.4C162.523 77.4 167 71.4902 167 64.2C167 56.9098 162.523 51 157 51C151.477 51 147 56.9098 147 64.2C147 71.4902 151.477 77.4 157 77.4Z" fill="#1F63CA"/>
<path d="M152.682 63.5053C155.82 63.5053 158.364 60.9132 158.364 57.7158C158.364 54.5184 155.82 51.9263 152.682 51.9263C149.544 51.9263 147 54.5184 147 57.7158C147 60.9132 149.544 63.5053 152.682 63.5053Z" fill="white"/>
<path fill-rule="evenodd" clip-rule="evenodd" d="M86 132.802C86.9975 98.3418 101.59 71 119.446 71C137.301 71 151.894 98.3417 152.891 132.801C143.591 140.458 132.005 145 119.445 145C106.886 145 95.3006 140.458 86 132.802Z" fill="url(#paint6_linear_1_3)"/>
<path fill-rule="evenodd" clip-rule="evenodd" d="M119.157 108C136.327 108 151.242 115.02 161.135 125.783L160.683 126.599C149.45 117.947 134.966 112.737 119.157 112.737C103.786 112.737 89.6675 117.662 78.5713 125.888L78 124.91C87.8872 114.642 102.455 108 119.157 108Z" fill="#DF9F3F"/>
<path fill-rule="evenodd" clip-rule="evenodd" d="M103.864 125.355C98.8555 123.532 92.2991 128.913 89.2198 137.373C89.1437 137.582 89.0704 137.791 89 138C94.0368 131.26 100.948 127.986 105.462 130.592C107.193 131.592 108.352 133.329 108.935 135.527C108.947 130.538 107.145 126.549 103.864 125.355Z" fill="#1F63CA"/>
<path fill-rule="evenodd" clip-rule="evenodd" d="M135.071 125.355C140.079 123.532 146.636 128.913 149.715 137.373C149.791 137.582 149.865 137.791 149.935 138C144.898 131.26 137.987 127.986 133.473 130.592C131.742 131.592 130.583 133.329 130 135.527C129.988 130.538 131.79 126.549 135.071 125.355Z" fill="#1F63CA"/>
<path fill-rule="evenodd" clip-rule="evenodd" d="M172.52 155.16C157.551 160.924 138.928 164.341 118.744 164.341C97.4571 164.341 77.9065 160.54 62.5471 154.194C61.9883 154.015 61.4922 153.89 61.0532 153.811C59.5378 153.742 58.5771 154.414 58.0196 155.188C58.0015 155.34 57.9962 155.499 58.0026 155.666C66.5556 179.513 90.3425 196.666 118.348 196.666C144.371 196.666 166.751 181.856 176.652 160.628C176.824 160.177 176.978 159.717 177.102 159.262C177.407 158.144 177.524 157.078 177.314 156.261C177.209 155.856 177.025 155.516 176.747 155.259C176.469 155.003 176.087 154.82 175.573 154.744C174.839 154.636 173.842 154.745 172.52 155.16ZM174.323 154.447C174.814 154.39 175.243 154.392 175.617 154.448C175.969 154.5 176.273 154.599 176.532 154.74C176.064 154.463 175.443 154.304 174.629 154.322C174.527 154.364 174.425 154.405 174.323 154.447ZM177.381 155.601C177.477 155.782 177.551 155.978 177.604 156.186C177.779 156.865 177.744 157.679 177.581 158.528C177.644 158.38 177.705 158.231 177.766 158.082C177.865 157.249 177.799 156.325 177.381 155.601ZM179.739 152.461C179.394 153.635 179.012 154.795 178.595 155.939L179.739 152.461ZM179.855 152.061C179.861 152.041 179.867 152.02 179.873 152C179.711 152.077 179.549 152.155 179.386 152.231L179.855 152.061Z" fill="#BA2222"/>
<mask id="mask0_1_3" style="mask-type:luminance" maskUnits="userSpaceOnUse" x="58" y="152" width="122" height="45">
<path fill-rule="evenodd" clip-rule="evenodd" d="M172.52 155.16C157.551 160.924 138.928 164.341 118.744 164.341C97.4571 164.341 77.9065 160.54 62.5471 154.194C61.9883 154.015 61.4922 153.89 61.0532 153.811C59.5378 153.742 58.5771 154.414 58.0196 155.188C58.0015 155.34 57.9962 155.499 58.0026 155.666C66.5556 179.513 90.3425 196.666 118.348 196.666C144.371 196.666 166.751 181.856 176.652 160.628C176.824 160.177 176.978 159.717 177.102 159.262C177.407 158.144 177.524 157.078 177.314 156.261C177.209 155.856 177.025 155.516 176.747 155.259C176.469 155.003 176.087 154.82 175.573 154.744C174.839 154.636 173.842 154.745 172.52 155.16ZM174.323 154.447C174.814 154.39 175.243 154.392 175.617 154.448C175.969 154.5 176.273 154.599 176.532 154.74C176.064 154.463 175.443 154.304 174.629 154.322C174.527 154.364 174.425 154.405 174.323 154.447ZM177.381 155.601C177.477 155.782 177.551 155.978 177.604 156.186C177.779 156.865 177.744 157.679 177.581 158.528C177.644 158.38 177.705 158.231 177.766 158.082C177.865 157.249 177.799 156.325 177.381 155.601ZM179.739 152.461C179.394 153.635 179.012 154.795 178.595 155.939L179.739 152.461ZM179.855 152.061C179.861 152.041 179.867 152.02 179.873 152C179.711 152.077 179.549 152.155 179.386 152.231L179.855 152.061Z" fill="white"/>
</mask>
<g mask="url(#mask0_1_3)">
<path d="M172.52 155.16L171.025 150.388L170.873 150.436L170.723 150.494L172.52 155.16ZM62.5471 154.194L64.4564 149.573L64.2662 149.494L64.0701 149.431L62.5471 154.194ZM61.0532 153.811L61.9387 148.89L61.6115 148.831L61.2793 148.816L61.0532 153.811ZM58.0196 155.188L53.9627 152.266L53.2083 153.313L53.055 154.594L58.0196 155.188ZM58.0026 155.666L53.0062 155.856L53.0355 156.627L53.2961 157.354L58.0026 155.666ZM176.652 160.628L181.183 162.741L181.258 162.581L181.321 162.416L176.652 160.628ZM174.323 154.447L172.443 149.814L174.9 159.413L174.323 154.447ZM176.532 154.74L174.138 159.13L179.078 150.437L176.532 154.74ZM174.629 154.322L174.518 149.323L173.592 149.344L172.735 149.695L174.629 154.322ZM177.381 155.601L181.71 153.099L172.967 157.949L177.381 155.601ZM177.581 158.528L172.671 157.588L182.192 160.462L177.581 158.528ZM177.766 158.082L182.393 159.978L182.651 159.348L182.731 158.672L177.766 158.082ZM179.739 152.461L184.536 153.872L174.99 150.899L179.739 152.461ZM178.595 155.939L173.846 154.377L183.293 157.651L178.595 155.939ZM179.873 152L184.681 153.371L187.722 142.7L177.714 147.49L179.873 152ZM179.855 152.061L181.557 156.763L183.959 155.893L184.662 153.437L179.855 152.061ZM179.386 152.231L177.253 147.709L181.087 156.933L179.386 152.231ZM118.744 169.341C139.462 169.341 158.704 165.838 174.317 159.826L170.723 150.494C156.398 156.01 138.394 159.341 118.744 159.341V169.341ZM60.6377 158.815C76.6863 165.446 96.8991 169.341 118.744 169.341V159.341C98.015 159.341 79.1266 155.634 64.4564 149.573L60.6377 158.815ZM60.1677 158.732C60.351 158.765 60.6314 158.831 61.024 158.956L64.0701 149.431C63.3452 149.2 62.6335 149.015 61.9387 148.89L60.1677 158.732ZM62.0765 158.111C61.9604 158.272 61.7606 158.478 61.4602 158.632C61.1395 158.797 60.8866 158.808 60.8272 158.806L61.2793 148.816C57.9036 148.663 55.4001 150.271 53.9627 152.266L62.0765 158.111ZM62.999 155.476C63.0011 155.532 63.0015 155.637 62.9842 155.782L53.055 154.594C53.0014 155.042 52.9914 155.467 53.0062 155.856L62.999 155.476ZM118.348 191.666C92.3841 191.666 70.5264 175.774 62.709 153.978L53.2961 157.354C62.5847 183.252 88.3008 201.666 118.348 201.666V191.666ZM172.12 158.514C163.057 177.947 142.466 191.666 118.348 191.666V201.666C146.275 201.666 170.445 185.765 181.183 162.741L172.12 158.514ZM172.278 157.948C172.204 158.219 172.105 158.519 171.983 158.839L181.321 162.416C181.544 161.834 181.752 161.215 181.926 160.576L172.278 157.948ZM172.472 157.508C172.432 157.353 172.423 157.249 172.421 157.214C172.419 157.178 172.422 157.186 172.417 157.245C172.407 157.372 172.371 157.606 172.278 157.948L181.926 160.576C182.306 159.181 182.692 157.097 182.156 155.014L172.472 157.508ZM173.357 158.935C172.789 158.411 172.556 157.834 172.472 157.508L182.156 155.014C181.863 153.878 181.262 152.621 180.137 151.584L173.357 158.935ZM174.841 159.691C174.537 159.646 173.938 159.47 173.357 158.935L180.137 151.584C179 150.536 177.638 149.995 176.305 149.798L174.841 159.691ZM174.015 159.931C174.463 159.791 174.753 159.735 174.91 159.714C175.071 159.694 175.029 159.718 174.841 159.691L176.305 149.798C174.521 149.534 172.701 149.863 171.025 150.388L174.015 159.931ZM176.349 149.501C175.455 149.369 174.576 149.384 173.746 149.48L174.9 159.413C174.936 159.409 174.962 159.407 174.98 159.406C174.997 159.405 175.005 159.405 175.005 159.405C175.003 159.405 174.961 159.405 174.885 159.394L176.349 149.501ZM178.927 150.351C178.08 149.889 177.199 149.627 176.349 149.501L174.885 159.394C174.739 159.372 174.466 159.309 174.138 159.13L178.927 150.351ZM174.74 159.321C174.849 159.318 174.498 159.346 173.986 159.043L179.078 150.437C177.631 149.581 176.037 149.29 174.518 149.323L174.74 159.321ZM176.203 159.08C176.31 159.036 176.417 158.993 176.524 158.949L172.735 149.695C172.638 149.735 172.541 149.774 172.443 149.814L176.203 159.08ZM182.446 154.939C182.307 154.397 182.099 153.825 181.795 153.253L172.967 157.949C172.855 157.739 172.795 157.559 172.763 157.434L182.446 154.939ZM182.492 159.468C182.722 158.266 182.881 156.627 182.446 154.939L172.763 157.434C172.736 157.331 172.727 157.258 172.723 157.223C172.719 157.187 172.721 157.178 172.72 157.2C172.72 157.223 172.718 157.267 172.71 157.335C172.702 157.402 172.69 157.486 172.671 157.588L182.492 159.468ZM173.139 156.186C173.084 156.322 173.027 156.458 172.97 156.594L182.192 160.462C182.26 160.301 182.327 160.14 182.393 159.978L173.139 156.186ZM173.052 158.103C172.86 157.771 172.819 157.52 172.811 157.457C172.802 157.391 172.812 157.403 172.801 157.493L182.731 158.672C182.892 157.317 182.892 155.145 181.71 153.099L173.052 158.103ZM174.942 151.05C174.627 152.122 174.278 153.182 173.897 154.228L183.293 157.651C183.746 156.408 184.161 155.148 184.536 153.872L174.942 151.05ZM183.345 157.501L184.489 154.023L174.99 150.899L173.846 154.377L183.345 157.501ZM175.064 150.629C175.059 150.648 175.054 150.666 175.048 150.685L184.662 153.437C184.668 153.416 184.675 153.393 184.681 153.371L175.064 150.629ZM181.518 156.754C181.69 156.673 181.861 156.592 182.031 156.51L177.714 147.49C177.561 147.563 177.408 147.636 177.253 147.709L181.518 156.754ZM178.153 147.36L177.684 147.53L181.087 156.933L181.557 156.763L178.153 147.36Z" fill="#B51B1B"/>
</g>
<path d="M120.066 175.051C109.063 174.288 105.514 197.284 105.115 208.877C109.277 206.998 117.656 202.599 117.881 200.027C118.203 203.377 121.044 210.27 129.832 211.039C133.249 183.231 124.745 175.461 120.066 175.051Z" fill="#D02323" stroke="#D12525" stroke-width="5"/>
</g>
<defs>
<linearGradient id="paint0_linear_1_3" x1="118.5" y1="36" x2="118.5" y2="242" gradientUnits="userSpaceOnUse">
<stop offset="0.268726" stop-color="#FABE49"/>
<stop offset="0.57" stop-color="#FFA826"/>
<stop offset="1" stop-color="#F0A12B"/>
</linearGradient>
<linearGradient id="paint1_linear_1_3" x1="119.694" y1="22.8741" x2="117.306" y2="69.5" gradientUnits="userSpaceOnUse">
<stop stop-color="#FFE3AD"/>
<stop offset="1" stop-color="#FABE49"/>
</linearGradient>
<linearGradient id="paint2_linear_1_3" x1="33.0266" y1="6.16344e-07" x2="33.0266" y2="62.4904" gradientUnits="userSpaceOnUse">
<stop stop-color="#F3C58E"/>
<stop offset="0.57" stop-color="#FFA826"/>
<stop offset="1" stop-color="#F0A12B"/>
</linearGradient>
<linearGradient id="paint3_linear_1_3" x1="21.2656" y1="47.487" x2="26.5839" y2="123.541" gradientUnits="userSpaceOnUse">
<stop stop-color="#FAA541"/>
<stop offset="0.57" stop-color="#F4C66B"/>
<stop offset="1" stop-color="#E87828"/>
</linearGradient>
<linearGradient id="paint4_linear_1_3" x1="204.027" y1="6.16344e-07" x2="204.027" y2="62.4904" gradientUnits="userSpaceOnUse">
<stop stop-color="#F3C58E"/>
<stop offset="0.57" stop-color="#FFA826"/>
<stop offset="1" stop-color="#F0A12B"/>
</linearGradient>
<linearGradient id="paint5_linear_1_3" x1="215.788" y1="47.487" x2="210.469" y2="123.541" gradientUnits="userSpaceOnUse">
<stop stop-color="#FAA541"/>
<stop offset="0.57" stop-color="#F4C66B"/>
<stop offset="1" stop-color="#E87828"/>
</linearGradient>
<linearGradient id="paint6_linear_1_3" x1="119.446" y1="71" x2="119.446" y2="145" gradientUnits="userSpaceOnUse">
<stop stop-color="#FEC85F"/>
<stop offset="0.691079" stop-color="#FFAB2B"/>
</linearGradient>
<clipPath id="clip0_1_3">
<rect width="238" height="223" fill="white"/>
</clipPath>
</defs>
</svg>
